<?xml version="1.0" encoding="UTF-8" standalone="no"?>
<!DOCTYPE svg PUBLIC "-//W3C//DTD SVG 1.1//EN"
 "http://www.w3.org/Graphics/SVG/1.1/DTD/svg11.dtd">
<!-- Generated by graphviz version 12.2.1 (20241206.2353)
 -->
<!-- Title: classes_ai_worker Pages: 1 -->
<svg width="4855pt" height="726pt"
 viewBox="0.00 0.00 4854.88 726.20" xmlns="http://www.w3.org/2000/svg" xmlns:xlink="http://www.w3.org/1999/xlink">
<g id="graph0" class="graph" transform="scale(1 1) rotate(0) translate(4 722.2)">
<title>classes_ai_worker</title>
<polygon fill="white" stroke="none" points="-4,4 -4,-722.2 4850.88,-722.2 4850.88,4 -4,4"/>
<!-- ai_worker.video.comfy_client.ComfyUIClient -->
<g id="node1" class="node">
<title>ai_worker.video.comfy_client.ComfyUIClient</title>
<polygon fill="none" stroke="black" points="0,-84.5 0,-259.7 1152.17,-259.7 1152.17,-84.5 0,-84.5"/>
<text text-anchor="start" x="532.14" y="-243.1" font-family="Times,serif" font-size="14.00">ComfyUIClient</text>
<polyline fill="none" stroke="black" points="0,-234.9 1152.17,-234.9"/>
<text text-anchor="start" x="539.15" y="-218.3" font-family="Times,serif" font-size="14.00">base_url</text>
<text text-anchor="start" x="539.15" y="-201.5" font-family="Times,serif" font-size="14.00">client_id : str</text>
<polyline fill="none" stroke="black" points="0,-193.3 1152.17,-193.3"/>
<text text-anchor="start" x="8" y="-176.7" font-family="Times,serif" font-size="14.00">clear_queue(): bool</text>
<text text-anchor="start" x="8" y="-159.9" font-family="Times,serif" font-size="14.00">generate_i2v(prompt: str, init_image_path: Path, negative_prompt: str, width: int, height: int, num_frames: int, fps: int, strength: float, steps: int, cfg: float, seed: int, use_distilled: bool, timeout: int): Path</text>
<text text-anchor="start" x="8" y="-143.1" font-family="Times,serif" font-size="14.00">generate_t2v(prompt: str, negative_prompt: str, width: int, height: int, num_frames: int, fps: int, steps: int, cfg: float, seed: int, use_distilled: bool, timeout: int): Path</text>
<text text-anchor="start" x="8" y="-126.3" font-family="Times,serif" font-size="14.00">generate_t2v_with_upscale(prompt: str, negative_prompt: str, num_frames: int, fps: int, seed: int, timeout: int): Path</text>
<text text-anchor="start" x="8" y="-109.5" font-family="Times,serif" font-size="14.00">health_check(): bool</text>
<text text-anchor="start" x="8" y="-92.7" font-family="Times,serif" font-size="14.00">interrupt_current(): bool</text>
</g>
<!-- ai_worker.core.processor.FailureType -->
<g id="node2" class="node">
<title>ai_worker.core.processor.FailureType</title>
<polygon fill="none" stroke="black" points="1169.87,-134.9 1169.87,-209.3 1254.29,-209.3 1254.29,-134.9 1169.87,-134.9"/>
<text text-anchor="start" x="1177.87" y="-192.7" font-family="Times,serif" font-size="14.00">FailureType</text>
<polyline fill="none" stroke="black" points="1169.87,-184.5 1254.29,-184.5"/>
<text text-anchor="start" x="1196.92" y="-167.9" font-family="Times,serif" font-size="14.00">name</text>
<polyline fill="none" stroke="black" points="1169.87,-159.7 1254.29,-159.7"/>
<text text-anchor="start" x="1210.33" y="-143.1" font-family="Times,serif" font-size="14.00"> </text>
</g>
<!-- ai_worker.core.gpu_manager.GPUMemoryManager -->
<g id="node3" class="node">
<title>ai_worker.core.gpu_manager.GPUMemoryManager</title>
<polygon fill="none" stroke="black" points="1272.23,-17.3 1272.23,-326.9 1699.94,-326.9 1699.94,-17.3 1272.23,-17.3"/>
<text text-anchor="start" x="1423.1" y="-310.3" font-family="Times,serif" font-size="14.00">GPUMemoryManager</text>
<polyline fill="none" stroke="black" points="1272.23,-302.1 1699.94,-302.1"/>
<text text-anchor="start" x="1363.2" y="-285.5" font-family="Times,serif" font-size="14.00">MAX_COEXIST_VRAM_GB : float</text>
<text text-anchor="start" x="1363.2" y="-268.7" font-family="Times,serif" font-size="14.00">MODEL_VRAM_REQUIREMENTS : dict</text>
<text text-anchor="start" x="1363.2" y="-251.9" font-family="Times,serif" font-size="14.00">cuda_available</text>
<text text-anchor="start" x="1363.2" y="-235.1" font-family="Times,serif" font-size="14.00">device_count</text>
<text text-anchor="start" x="1363.2" y="-218.3" font-family="Times,serif" font-size="14.00">device_name</text>
<text text-anchor="start" x="1363.2" y="-201.5" font-family="Times,serif" font-size="14.00">loaded_models : Dict[str, ModelInfo]</text>
<polyline fill="none" stroke="black" points="1272.23,-193.3 1699.94,-193.3"/>
<text text-anchor="start" x="1280.23" y="-176.7" font-family="Times,serif" font-size="14.00">can_coexist(new_model_type: ModelType): bool</text>
<text text-anchor="start" x="1280.23" y="-159.9" font-family="Times,serif" font-size="14.00">can_load_model(required_vram_gb: float, safety_margin_gb: float): bool</text>
<text text-anchor="start" x="1280.23" y="-143.1" font-family="Times,serif" font-size="14.00">cleanup_memory()</text>
<text text-anchor="start" x="1280.23" y="-126.3" font-family="Times,serif" font-size="14.00">emergency_cleanup()</text>
<text text-anchor="start" x="1280.23" y="-109.5" font-family="Times,serif" font-size="14.00">get_available_vram(): float</text>
<text text-anchor="start" x="1280.23" y="-92.7" font-family="Times,serif" font-size="14.00">get_memory_stats(): MemoryStats</text>
<text text-anchor="start" x="1280.23" y="-75.9" font-family="Times,serif" font-size="14.00">get_system_available_vram(): float</text>
<text text-anchor="start" x="1280.23" y="-59.1" font-family="Times,serif" font-size="14.00">log_memory_status()</text>
<text text-anchor="start" x="1280.23" y="-42.3" font-family="Times,serif" font-size="14.00">managed_inference(model_type: ModelType, model_name: str)</text>
<text text-anchor="start" x="1280.23" y="-25.5" font-family="Times,serif" font-size="14.00">monitor_memory(): Dict[str, Any]</text>
</g>
<!-- ai_worker.core.gpu_manager.ModelInfo -->
<g id="node7" class="node">
<title>ai_worker.core.gpu_manager.ModelInfo</title>
<polygon fill="none" stroke="black" points="1200.56,-405.9 1200.56,-547.5 1401.61,-547.5 1401.61,-405.9 1200.56,-405.9"/>
<text text-anchor="start" x="1271.15" y="-530.9" font-family="Times,serif" font-size="14.00">ModelInfo</text>
<polyline fill="none" stroke="black" points="1200.56,-522.7 1401.61,-522.7"/>
<text text-anchor="start" x="1208.56" y="-506.1" font-family="Times,serif" font-size="14.00">actual_vram_gb : Optional[float]</text>
<text text-anchor="start" x="1208.56" y="-489.3" font-family="Times,serif" font-size="14.00">estimated_vram_gb : float</text>
<text text-anchor="start" x="1208.56" y="-472.5" font-family="Times,serif" font-size="14.00">loaded : bool</text>
<text text-anchor="start" x="1208.56" y="-455.7" font-family="Times,serif" font-size="14.00">model_type</text>
<text text-anchor="start" x="1208.56" y="-438.9" font-family="Times,serif" font-size="14.00">name : str</text>
<polyline fill="none" stroke="black" points="1200.56,-430.7 1401.61,-430.7"/>
<text text-anchor="start" x="1299.33" y="-414.1" font-family="Times,serif" font-size="14.00"> </text>
</g>
<!-- ai_worker.core.gpu_manager.GPUMemoryManager&#45;&gt;ai_worker.core.gpu_manager.ModelInfo -->
<g id="edge1" class="edge">
<title>ai_worker.core.gpu_manager.GPUMemoryManager&#45;&gt;ai_worker.core.gpu_manager.ModelInfo</title>
<path fill="none" stroke="black" d="M1391.96,-327.06C1377.34,-350.97 1362.78,-374.79 1349.73,-396.13"/>
<polygon fill="black" stroke="black" points="1344.67,-404.4 1346.05,-393.52 1346.65,-401.17 1349.89,-395.87 1349.89,-395.87 1349.89,-395.87 1346.65,-401.17 1353.73,-398.22 1344.67,-404.4"/>
<text text-anchor="middle" x="1408.58" y="-366.4" font-family="Times,serif" font-size="14.00" fill="green">loaded_models</text>
</g>
<!-- ai_worker.core.processor.RobustProcessor -->
<g id="node11" class="node">
<title>ai_worker.core.processor.RobustProcessor</title>
<polygon fill="none" stroke="black" points="1419.4,-405.9 1419.4,-547.5 1818.77,-547.5 1818.77,-405.9 1419.4,-405.9"/>
<text text-anchor="start" x="1572.03" y="-530.9" font-family="Times,serif" font-size="14.00">RobustProcessor</text>
<polyline fill="none" stroke="black" points="1419.4,-522.7 1818.77,-522.7"/>
<text text-anchor="start" x="1546" y="-506.1" font-family="Times,serif" font-size="14.00">cfg : dict</text>
<text text-anchor="start" x="1546" y="-489.3" font-family="Times,serif" font-size="14.00">gpu_manager : NoneType</text>
<text text-anchor="start" x="1546" y="-472.5" font-family="Times,serif" font-size="14.00">retry_policy</text>
<polyline fill="none" stroke="black" points="1419.4,-464.3 1818.77,-464.3"/>
<text text-anchor="start" x="1427.4" y="-447.7" font-family="Times,serif" font-size="14.00">llm_tts_stage(post_id: int): tuple[ScriptData, Path]</text>
<text text-anchor="start" x="1427.4" y="-430.9" font-family="Times,serif" font-size="14.00">process_with_retry(post: Post, session: Session): bool</text>
<text text-anchor="start" x="1427.4" y="-414.1" font-family="Times,serif" font-size="14.00">render_stage(post_id: int, script: ScriptData, audio_path: Path): Path</text>
</g>
<!-- ai_worker.core.gpu_manager.GPUMemoryManager&#45;&gt;ai_worker.core.processor.RobustProcessor -->
<g id="edge5" class="edge">
<title>ai_worker.core.gpu_manager.GPUMemoryManager&#45;&gt;ai_worker.core.processor.RobustProcessor</title>
<path fill="none" stroke="black" d="M1553.75,-327.06C1563.84,-350 1573.89,-372.87 1582.97,-393.54"/>
<polygon fill="black" stroke="black" points="1583.01,-393.63 1589.09,-397.51 1587.84,-404.61 1581.76,-400.73 1583.01,-393.63"/>
<text text-anchor="middle" x="1614.16" y="-366.4" font-family="Times,serif" font-size="14.00" fill="green">gpu_manager</text>
</g>
<!-- ai_worker.video.image_filter.ImageSuitability -->
<g id="node4" class="node">
<title>ai_worker.video.image_filter.ImageSuitability</title>
<polygon fill="none" stroke="black" points="1718.42,-101.3 1718.42,-242.9 1827.74,-242.9 1827.74,-101.3 1718.42,-101.3"/>
<text text-anchor="start" x="1726.42" y="-226.3" font-family="Times,serif" font-size="14.00">ImageSuitability</text>
<polyline fill="none" stroke="black" points="1718.42,-218.1 1827.74,-218.1"/>
<text text-anchor="start" x="1736.54" y="-201.5" font-family="Times,serif" font-size="14.00">category : str</text>
<text text-anchor="start" x="1736.54" y="-184.7" font-family="Times,serif" font-size="14.00">height : int</text>
<text text-anchor="start" x="1736.54" y="-167.9" font-family="Times,serif" font-size="14.00">reason : str</text>
<text text-anchor="start" x="1736.54" y="-151.1" font-family="Times,serif" font-size="14.00">score : float</text>
<text text-anchor="start" x="1736.54" y="-134.3" font-family="Times,serif" font-size="14.00">width : int</text>
<polyline fill="none" stroke="black" points="1718.42,-126.1 1827.74,-126.1"/>
<text text-anchor="start" x="1771.33" y="-109.5" font-family="Times,serif" font-size="14.00"> </text>
</g>
<!-- ai_worker.script.logger.LLMCallTimer -->
<g id="node5" class="node">
<title>ai_worker.script.logger.LLMCallTimer</title>
<polygon fill="none" stroke="black" points="1845.59,-134.9 1845.59,-209.3 1952.58,-209.3 1952.58,-134.9 1845.59,-134.9"/>
<text text-anchor="start" x="1855.54" y="-192.7" font-family="Times,serif" font-size="14.00">LLMCallTimer</text>
<polyline fill="none" stroke="black" points="1845.59,-184.5 1952.58,-184.5"/>
<text text-anchor="start" x="1853.59" y="-167.9" font-family="Times,serif" font-size="14.00">elapsed_ms : int</text>
<polyline fill="none" stroke="black" points="1845.59,-159.7 1952.58,-159.7"/>
<text text-anchor="start" x="1897.33" y="-143.1" font-family="Times,serif" font-size="14.00"> </text>
</g>
<!-- ai_worker.core.gpu_manager.MemoryStats -->
<g id="node6" class="node">
<title>ai_worker.core.gpu_manager.MemoryStats</title>
<polygon fill="none" stroke="black" points="1970.78,-101.3 1970.78,-242.9 2103.39,-242.9 2103.39,-101.3 1970.78,-101.3"/>
<text text-anchor="start" x="1999.36" y="-226.3" font-family="Times,serif" font-size="14.00">MemoryStats</text>
<polyline fill="none" stroke="black" points="1970.78,-218.1 2103.39,-218.1"/>
<text text-anchor="start" x="1978.78" y="-201.5" font-family="Times,serif" font-size="14.00">allocated_gb : float</text>
<text text-anchor="start" x="1978.78" y="-184.7" font-family="Times,serif" font-size="14.00">free_gb : float</text>
<text text-anchor="start" x="1978.78" y="-167.9" font-family="Times,serif" font-size="14.00">reserved_gb : float</text>
<text text-anchor="start" x="1978.78" y="-151.1" font-family="Times,serif" font-size="14.00">total_gb : float</text>
<text text-anchor="start" x="1978.78" y="-134.3" font-family="Times,serif" font-size="14.00">usage_percent : float</text>
<polyline fill="none" stroke="black" points="1970.78,-126.1 2103.39,-126.1"/>
<text text-anchor="start" x="2035.33" y="-109.5" font-family="Times,serif" font-size="14.00"> </text>
</g>
<!-- ai_worker.core.gpu_manager.ModelType -->
<g id="node8" class="node">
<title>ai_worker.core.gpu_manager.ModelType</title>
<polygon fill="none" stroke="black" points="1260.42,-626.5 1260.42,-700.9 1341.74,-700.9 1341.74,-626.5 1260.42,-626.5"/>
<text text-anchor="start" x="1268.42" y="-684.3" font-family="Times,serif" font-size="14.00">ModelType</text>
<polyline fill="none" stroke="black" points="1260.42,-676.1 1341.74,-676.1"/>
<text text-anchor="start" x="1285.92" y="-659.5" font-family="Times,serif" font-size="14.00">name</text>
<polyline fill="none" stroke="black" points="1260.42,-651.3 1341.74,-651.3"/>
<text text-anchor="start" x="1299.33" y="-634.7" font-family="Times,serif" font-size="14.00"> </text>
</g>
<!-- ai_worker.core.gpu_manager.ModelInfo&#45;&gt;ai_worker.core.gpu_manager.ModelType -->
<g id="edge2" class="edge">
<title>ai_worker.core.gpu_manager.ModelInfo&#45;&gt;ai_worker.core.gpu_manager.ModelType</title>
<path fill="none" stroke="black" d="M1301.08,-547.9C1301.08,-570.41 1301.08,-594.8 1301.08,-615.28"/>
<polygon fill="black" stroke="black" points="1301.08,-625 1296.58,-615 1301.08,-621.22 1301.08,-615 1301.08,-615 1301.08,-615 1301.08,-621.22 1305.58,-615 1301.08,-625"/>
<text text-anchor="middle" x="1334.13" y="-578.6" font-family="Times,serif" font-size="14.00" fill="green">model_type</text>
</g>
<!-- ai_worker.scene.analyzer.ResourceProfile -->
<g id="node9" class="node">
<title>ai_worker.scene.analyzer.ResourceProfile</title>
<polygon fill="none" stroke="black" points="2121.1,-101.3 2121.1,-242.9 2277.06,-242.9 2277.06,-101.3 2121.1,-101.3"/>
<text text-anchor="start" x="2153.99" y="-226.3" font-family="Times,serif" font-size="14.00">ResourceProfile</text>
<polyline fill="none" stroke="black" points="2121.1,-218.1 2277.06,-218.1"/>
<text text-anchor="start" x="2129.1" y="-201.5" font-family="Times,serif" font-size="14.00">estimated_sentences : int</text>
<text text-anchor="start" x="2129.1" y="-184.7" font-family="Times,serif" font-size="14.00">image_count : int</text>
<text text-anchor="start" x="2129.1" y="-167.9" font-family="Times,serif" font-size="14.00">ratio : float</text>
<text text-anchor="start" x="2129.1" y="-151.1" font-family="Times,serif" font-size="14.00">strategy : Literal</text>
<text text-anchor="start" x="2129.1" y="-134.3" font-family="Times,serif" font-size="14.00">text_length : int</text>
<polyline fill="none" stroke="black" points="2121.1,-126.1 2277.06,-126.1"/>
<text text-anchor="start" x="2197.33" y="-109.5" font-family="Times,serif" font-size="14.00"> </text>
</g>
<!-- ai_worker.scene.director.SceneDirector -->
<g id="node13" class="node">
<title>ai_worker.scene.director.SceneDirector</title>
<polygon fill="none" stroke="black" points="2111.97,-414.3 2111.97,-539.1 2286.19,-539.1 2286.19,-414.3 2111.97,-414.3"/>
<text text-anchor="start" x="2159.05" y="-522.5" font-family="Times,serif" font-size="14.00">SceneDirector</text>
<polyline fill="none" stroke="black" points="2111.97,-514.3 2286.19,-514.3"/>
<text text-anchor="start" x="2137.65" y="-497.7" font-family="Times,serif" font-size="14.00">comment_voices : list</text>
<text text-anchor="start" x="2137.65" y="-480.9" font-family="Times,serif" font-size="14.00">mood : str</text>
<text text-anchor="start" x="2137.65" y="-464.1" font-family="Times,serif" font-size="14.00">profile</text>
<text text-anchor="start" x="2137.65" y="-447.3" font-family="Times,serif" font-size="14.00">script : dict</text>
<polyline fill="none" stroke="black" points="2111.97,-439.1 2286.19,-439.1"/>
<text text-anchor="start" x="2119.97" y="-422.5" font-family="Times,serif" font-size="14.00">direct(): list[SceneDecision]</text>
</g>
<!-- ai_worker.scene.analyzer.ResourceProfile&#45;&gt;ai_worker.scene.director.SceneDirector -->
<g id="edge6" class="edge">
<title>ai_worker.scene.analyzer.ResourceProfile&#45;&gt;ai_worker.scene.director.SceneDirector</title>
<path fill="none" stroke="black" d="M2199.08,-243.28C2199.08,-290.54 2199.08,-352.79 2199.08,-400.97"/>
<polygon fill="none" stroke="black" points="2199.08,-400.95 2203.08,-406.95 2199.08,-412.95 2195.08,-406.95 2199.08,-400.95"/>
<text text-anchor="middle" x="2217.74" y="-366.4" font-family="Times,serif" font-size="14.00" fill="green">profile</text>
</g>
<!-- ai_worker.core.processor.RetryPolicy -->
<g id="node10" class="node">
<title>ai_worker.core.processor.RetryPolicy</title>
<polygon fill="none" stroke="black" points="1551.61,-609.7 1551.61,-717.7 1686.55,-717.7 1686.55,-609.7 1551.61,-609.7"/>
<text text-anchor="start" x="1585.64" y="-701.1" font-family="Times,serif" font-size="14.00">RetryPolicy</text>
<polyline fill="none" stroke="black" points="1551.61,-692.9 1686.55,-692.9"/>
<text text-anchor="start" x="1559.61" y="-676.3" font-family="Times,serif" font-size="14.00">backoff_factor : float</text>
<text text-anchor="start" x="1559.61" y="-659.5" font-family="Times,serif" font-size="14.00">initial_delay : float</text>
<text text-anchor="start" x="1559.61" y="-642.7" font-family="Times,serif" font-size="14.00">max_attempts : int</text>
<polyline fill="none" stroke="black" points="1551.61,-634.5 1686.55,-634.5"/>
<text text-anchor="start" x="1617.33" y="-617.9" font-family="Times,serif" font-size="14.00"> </text>
</g>
<!-- ai_worker.core.processor.RobustProcessor&#45;&gt;ai_worker.core.processor.RetryPolicy -->
<g id="edge3" class="edge">
<title>ai_worker.core.processor.RobustProcessor&#45;&gt;ai_worker.core.processor.RetryPolicy</title>
<path fill="none" stroke="black" d="M1619.08,-547.9C1619.08,-564.43 1619.08,-581.97 1619.08,-598.23"/>
<polygon fill="black" stroke="black" points="1619.08,-608.04 1614.58,-598.04 1619.08,-604.25 1619.08,-598.04 1619.08,-598.04 1619.08,-598.04 1619.08,-604.25 1623.58,-598.04 1619.08,-608.04"/>
<text text-anchor="middle" x="1653.29" y="-578.6" font-family="Times,serif" font-size="14.00" fill="green">retry_policy</text>
</g>
<!-- ai_worker.scene.director.SceneDecision -->
<g id="node12" class="node">
<title>ai_worker.scene.director.SceneDecision</title>
<polygon fill="none" stroke="black" points="2295.14,-0.5 2295.14,-343.7 2485.03,-343.7 2485.03,-0.5 2295.14,-0.5"/>
<text text-anchor="start" x="2348.49" y="-327.1" font-family="Times,serif" font-size="14.00">SceneDecision</text>
<polyline fill="none" stroke="black" points="2295.14,-318.9 2485.03,-318.9"/>
<text text-anchor="start" x="2303.14" y="-302.3" font-family="Times,serif" font-size="14.00">author : str | None</text>
<text text-anchor="start" x="2303.14" y="-285.5" font-family="Times,serif" font-size="14.00">bgm_path : str | None</text>
<text text-anchor="start" x="2303.14" y="-268.7" font-family="Times,serif" font-size="14.00">block_type : str</text>
<text text-anchor="start" x="2303.14" y="-251.9" font-family="Times,serif" font-size="14.00">emotion_tag : str</text>
<text text-anchor="start" x="2303.14" y="-235.1" font-family="Times,serif" font-size="14.00">image_url : str | None</text>
<text text-anchor="start" x="2303.14" y="-218.3" font-family="Times,serif" font-size="14.00">mood : str</text>
<text text-anchor="start" x="2303.14" y="-201.5" font-family="Times,serif" font-size="14.00">pre_split_lines : list[str] | None</text>
<text text-anchor="start" x="2303.14" y="-184.7" font-family="Times,serif" font-size="14.00">text_lines : list</text>
<text text-anchor="start" x="2303.14" y="-167.9" font-family="Times,serif" font-size="14.00">text_only_stack : int</text>
<text text-anchor="start" x="2303.14" y="-151.1" font-family="Times,serif" font-size="14.00">tts_emotion : str</text>
<text text-anchor="start" x="2303.14" y="-134.3" font-family="Times,serif" font-size="14.00">type : Literal</text>
<text text-anchor="start" x="2303.14" y="-117.5" font-family="Times,serif" font-size="14.00">video_clip_path : str | None</text>
<text text-anchor="start" x="2303.14" y="-100.7" font-family="Times,serif" font-size="14.00">video_generation_failed : bool</text>
<text text-anchor="start" x="2303.14" y="-83.9" font-family="Times,serif" font-size="14.00">video_init_image : str | None</text>
<text text-anchor="start" x="2303.14" y="-67.1" font-family="Times,serif" font-size="14.00">video_mode : str | None</text>
<text text-anchor="start" x="2303.14" y="-50.3" font-family="Times,serif" font-size="14.00">video_prompt : str | None</text>
<text text-anchor="start" x="2303.14" y="-33.5" font-family="Times,serif" font-size="14.00">voice_override : str | None</text>
<polyline fill="none" stroke="black" points="2295.14,-25.3 2485.03,-25.3"/>
<text text-anchor="start" x="2388.33" y="-8.7" font-family="Times,serif" font-size="14.00"> </text>
</g>
<!-- ai_worker.scene.strategy.SceneMix -->
<g id="node14" class="node">
<title>ai_worker.scene.strategy.SceneMix</title>
<polygon fill="none" stroke="black" points="2502.6,-101.3 2502.6,-242.9 2679.57,-242.9 2679.57,-101.3 2502.6,-101.3"/>
<text text-anchor="start" x="2562.7" y="-226.3" font-family="Times,serif" font-size="14.00">SceneMix</text>
<polyline fill="none" stroke="black" points="2502.6,-218.1 2679.57,-218.1"/>
<text text-anchor="start" x="2510.6" y="-201.5" font-family="Times,serif" font-size="14.00">image_text_indices : list[int]</text>
<text text-anchor="start" x="2510.6" y="-184.7" font-family="Times,serif" font-size="14.00">strategy : str</text>
<text text-anchor="start" x="2510.6" y="-167.9" font-family="Times,serif" font-size="14.00">text_only_indices : list[int]</text>
<text text-anchor="start" x="2510.6" y="-151.1" font-family="Times,serif" font-size="14.00">total_scenes : int</text>
<text text-anchor="start" x="2510.6" y="-134.3" font-family="Times,serif" font-size="14.00">video_indices : list[int]</text>
<polyline fill="none" stroke="black" points="2502.6,-126.1 2679.57,-126.1"/>
<text text-anchor="start" x="2589.33" y="-109.5" font-family="Times,serif" font-size="14.00"> </text>
</g>
<!-- ai_worker.video.manager.VideoCheckpoint -->
<g id="node15" class="node">
<title>ai_worker.video.manager.VideoCheckpoint</title>
<polygon fill="none" stroke="black" points="2697.37,-101.3 2697.37,-242.9 2940.8,-242.9 2940.8,-101.3 2697.37,-101.3"/>
<text text-anchor="start" x="2769.7" y="-226.3" font-family="Times,serif" font-size="14.00">VideoCheckpoint</text>
<polyline fill="none" stroke="black" points="2697.37,-218.1 2940.8,-218.1"/>
<text text-anchor="start" x="2738.6" y="-201.5" font-family="Times,serif" font-size="14.00">phase : int</text>
<text text-anchor="start" x="2738.6" y="-184.7" font-family="Times,serif" font-size="14.00">total_scenes : int</text>
<text text-anchor="start" x="2738.6" y="-167.9" font-family="Times,serif" font-size="14.00">video_clips : dict[str, str]</text>
<text text-anchor="start" x="2738.6" y="-151.1" font-family="Times,serif" font-size="14.00">video_scenes_done : list[int]</text>
<polyline fill="none" stroke="black" points="2697.37,-142.9 2940.8,-142.9"/>
<text text-anchor="start" x="2705.37" y="-126.3" font-family="Times,serif" font-size="14.00">from_dict(data: dict): &#39;VideoCheckpoint&#39;</text>
<text text-anchor="start" x="2705.37" y="-109.5" font-family="Times,serif" font-size="14.00">to_dict(): dict</text>
</g>
<!-- ai_worker.video.manager.VideoGenerationResult -->
<g id="node16" class="node">
<title>ai_worker.video.manager.VideoGenerationResult</title>
<polygon fill="none" stroke="black" points="3391.54,-397.5 3391.54,-555.9 3552.63,-555.9 3552.63,-397.5 3391.54,-397.5"/>
<text text-anchor="start" x="3405.99" y="-539.3" font-family="Times,serif" font-size="14.00">VideoGenerationResult</text>
<polyline fill="none" stroke="black" points="3391.54,-531.1 3552.63,-531.1"/>
<text text-anchor="start" x="3399.54" y="-514.5" font-family="Times,serif" font-size="14.00">attempts : int</text>
<text text-anchor="start" x="3399.54" y="-497.7" font-family="Times,serif" font-size="14.00">clip_path : Path | None</text>
<text text-anchor="start" x="3399.54" y="-480.9" font-family="Times,serif" font-size="14.00">failure_reason : str | None</text>
<text text-anchor="start" x="3399.54" y="-464.1" font-family="Times,serif" font-size="14.00">merged_into : int | None</text>
<text text-anchor="start" x="3399.54" y="-447.3" font-family="Times,serif" font-size="14.00">scene_index : int</text>
<text text-anchor="start" x="3399.54" y="-430.5" font-family="Times,serif" font-size="14.00">success : bool</text>
<polyline fill="none" stroke="black" points="3391.54,-422.3 3552.63,-422.3"/>
<text text-anchor="start" x="3470.33" y="-405.7" font-family="Times,serif" font-size="14.00"> </text>
</g>
<!-- ai_worker.video.manager.VideoManager -->
<g id="node17" class="node">
<title>ai_worker.video.manager.VideoManager</title>
<polygon fill="none" stroke="black" points="2958.55,-109.7 2958.55,-234.5 3985.61,-234.5 3985.61,-109.7 2958.55,-109.7"/>
<text text-anchor="start" x="3430.1" y="-217.9" font-family="Times,serif" font-size="14.00">VideoManager</text>
<polyline fill="none" stroke="black" points="2958.55,-209.7 3985.61,-209.7"/>
<text text-anchor="start" x="3369.05" y="-193.1" font-family="Times,serif" font-size="14.00">comfy</text>
<text text-anchor="start" x="3369.05" y="-176.3" font-family="Times,serif" font-size="14.00">config : dict</text>
<text text-anchor="start" x="3369.05" y="-159.5" font-family="Times,serif" font-size="14.00">prompt_engine</text>
<text text-anchor="start" x="3369.05" y="-142.7" font-family="Times,serif" font-size="14.00">results : list[VideoGenerationResult]</text>
<polyline fill="none" stroke="black" points="2958.55,-134.5 3985.61,-134.5"/>
<text text-anchor="start" x="2966.55" y="-117.9" font-family="Times,serif" font-size="14.00">generate_all_clips(scenes: list, mood: str, post_id: int, title: str, body_summary: str, checkpoint: VideoCheckpoint | None, on_scene_complete: Callable[[int, str], None] | None): list</text>
</g>
<!-- ai_worker.video.manager.VideoManager&#45;&gt;ai_worker.video.manager.VideoGenerationResult -->
<g id="edge4" class="edge">
<title>ai_worker.video.manager.VideoManager&#45;&gt;ai_worker.video.manager.VideoGenerationResult</title>
<path fill="none" stroke="black" d="M3472.08,-234.7C3472.08,-278.23 3472.08,-337.25 3472.08,-386"/>
<polygon fill="black" stroke="black" points="3472.08,-395.97 3467.58,-385.97 3472.08,-392.19 3472.08,-385.97 3472.08,-385.97 3472.08,-385.97 3472.08,-392.19 3476.58,-385.97 3472.08,-395.97"/>
<text text-anchor="middle" x="3490.36" y="-366.4" font-family="Times,serif" font-size="14.00" fill="green">results</text>
</g>
<!-- ai_worker.video.prompt_engine.VideoPromptEngine -->
<g id="node18" class="node">
<title>ai_worker.video.prompt_engine.VideoPromptEngine</title>
<polygon fill="none" stroke="black" points="4003.29,-118.1 4003.29,-226.1 4846.88,-226.1 4846.88,-118.1 4003.29,-118.1"/>
<text text-anchor="start" x="4367.54" y="-209.5" font-family="Times,serif" font-size="14.00">VideoPromptEngine</text>
<polyline fill="none" stroke="black" points="4003.29,-201.3 4846.88,-201.3"/>
<polyline fill="none" stroke="black" points="4003.29,-176.5 4846.88,-176.5"/>
<text text-anchor="start" x="4011.29" y="-159.9" font-family="Times,serif" font-size="14.00">generate_batch(scenes: list, mood: str, title: str, body_summary: str, post_id: int | None): list</text>
<text text-anchor="start" x="4011.29" y="-143.1" font-family="Times,serif" font-size="14.00">generate_prompt(text_lines: list[str], mood: str, title: str, body_summary: str, has_init_image: bool, post_id: int | None, scene_index: int | None): str</text>
<text text-anchor="start" x="4011.29" y="-126.3" font-family="Times,serif" font-size="14.00">simplify_prompt(original_prompt: str, post_id: int | None, scene_index: int | None): str</text>
</g>
</g>
</svg>
