<?xml version="1.0" encoding="UTF-8" standalone="no"?>
<!DOCTYPE svg PUBLIC "-//W3C//DTD SVG 1.1//EN"
 "http://www.w3.org/Graphics/SVG/1.1/DTD/svg11.dtd">
<!-- Generated by graphviz version 12.2.1 (20241206.2353)
 -->
<!-- Title: packages_ai_worker Pages: 1 -->
<svg width="2482pt" height="476pt"
 viewBox="0.00 0.00 2482.26 476.00" xmlns="http://www.w3.org/2000/svg" xmlns:xlink="http://www.w3.org/1999/xlink">
<g id="graph0" class="graph" transform="scale(1 1) rotate(0) translate(4 472)">
<title>packages_ai_worker</title>
<polygon fill="white" stroke="none" points="-4,4 -4,-472 2478.26,-472 2478.26,4 -4,4"/>
<!-- ai_worker -->
<g id="node1" class="node">
<title>ai_worker</title>
<polygon fill="none" stroke="black" points="808.9,-36 736.15,-36 736.15,0 808.9,0 808.9,-36"/>
<text text-anchor="middle" x="772.53" y="-13.8" font-family="Times,serif" font-size="14.00">ai_worker</text>
</g>
<!-- ai_worker.core -->
<g id="node2" class="node">
<title>ai_worker.core</title>
<polygon fill="none" stroke="black" points="1283.7,-36 1183.36,-36 1183.36,0 1283.7,0 1283.7,-36"/>
<text text-anchor="middle" x="1233.53" y="-13.8" font-family="Times,serif" font-size="14.00">ai_worker.core</text>
</g>
<!-- ai_worker.core.gpu_manager -->
<g id="node3" class="node">
<title>ai_worker.core.gpu_manager</title>
<polygon fill="none" stroke="black" points="1273.55,-180 1093.51,-180 1093.51,-144 1273.55,-144 1273.55,-180"/>
<text text-anchor="middle" x="1183.53" y="-157.8" font-family="Times,serif" font-size="14.00">ai_worker.core.gpu_manager</text>
</g>
<!-- ai_worker.core&#45;&gt;ai_worker.core.gpu_manager -->
<g id="edge1" class="edge">
<title>ai_worker.core&#45;&gt;ai_worker.core.gpu_manager</title>
<path fill="none" stroke="black" d="M1220.02,-36.2C1212.88,-46.14 1204.56,-59.18 1199.53,-72 1191.89,-91.45 1187.87,-114.72 1185.77,-132.6"/>
<polygon fill="black" stroke="black" points="1184.75,-142.52 1181.3,-132.11 1185.14,-138.75 1185.77,-132.57 1185.77,-132.57 1185.77,-132.57 1185.14,-138.75 1190.25,-133.03 1184.75,-142.52"/>
</g>
<!-- ai_worker.core.shutdown -->
<g id="node6" class="node">
<title>ai_worker.core.shutdown</title>
<polygon fill="none" stroke="black" points="1366.67,-108 1208.38,-108 1208.38,-72 1366.67,-72 1366.67,-108"/>
<text text-anchor="middle" x="1287.53" y="-85.8" font-family="Times,serif" font-size="14.00">ai_worker.core.shutdown</text>
</g>
<!-- ai_worker.core&#45;&gt;ai_worker.core.shutdown -->
<g id="edge2" class="edge">
<title>ai_worker.core&#45;&gt;ai_worker.core.shutdown</title>
<path fill="none" stroke="black" d="M1246.88,-36.3C1253.09,-44.36 1260.61,-54.11 1267.48,-63.02"/>
<polygon fill="black" stroke="black" points="1273.59,-70.93 1263.92,-65.76 1271.28,-67.94 1267.48,-63.01 1267.48,-63.01 1267.48,-63.01 1271.28,-67.94 1271.04,-60.26 1273.59,-70.93"/>
</g>
<!-- ai_worker.core.main -->
<g id="node4" class="node">
<title>ai_worker.core.main</title>
<polygon fill="none" stroke="black" points="1529.45,-36 1397.61,-36 1397.61,0 1529.45,0 1529.45,-36"/>
<text text-anchor="middle" x="1463.53" y="-13.8" font-family="Times,serif" font-size="14.00">ai_worker.core.main</text>
</g>
<!-- ai_worker.core.processor -->
<g id="node5" class="node">
<title>ai_worker.core.processor</title>
<polygon fill="none" stroke="black" points="1542.27,-108 1384.78,-108 1384.78,-72 1542.27,-72 1542.27,-108"/>
<text text-anchor="middle" x="1463.53" y="-85.8" font-family="Times,serif" font-size="14.00">ai_worker.core.processor</text>
</g>
<!-- ai_worker.core.main&#45;&gt;ai_worker.core.processor -->
<g id="edge3" class="edge">
<title>ai_worker.core.main&#45;&gt;ai_worker.core.processor</title>
<path fill="none" stroke="black" d="M1463.53,-36.3C1463.53,-43.68 1463.53,-52.48 1463.53,-60.75"/>
<polygon fill="black" stroke="black" points="1463.53,-70.68 1459.03,-60.68 1463.53,-66.9 1463.53,-60.68 1463.53,-60.68 1463.53,-60.68 1463.53,-66.9 1468.03,-60.68 1463.53,-70.68"/>
</g>
<!-- ai_worker.core.main&#45;&gt;ai_worker.core.shutdown -->
<g id="edge4" class="edge">
<title>ai_worker.core.main&#45;&gt;ai_worker.core.shutdown</title>
<path fill="none" stroke="black" d="M1419.57,-36.48C1395.96,-45.87 1366.65,-57.53 1341.65,-67.47"/>
<polygon fill="black" stroke="black" points="1332.36,-71.17 1339.99,-63.29 1335.88,-69.77 1341.65,-67.47 1341.65,-67.47 1341.65,-67.47 1335.88,-69.77 1343.32,-71.65 1332.36,-71.17"/>
</g>
<!-- ai_worker.tts.fish_client -->
<g id="node29" class="node">
<title>ai_worker.tts.fish_client</title>
<polygon fill="none" stroke="black" points="1947.57,-324 1795.49,-324 1795.49,-288 1947.57,-288 1947.57,-324"/>
<text text-anchor="middle" x="1871.53" y="-301.8" font-family="Times,serif" font-size="14.00">ai_worker.tts.fish_client</text>
</g>
<!-- ai_worker.core.main&#45;&gt;ai_worker.tts.fish_client -->
<g id="edge5" class="edge">
<title>ai_worker.core.main&#45;&gt;ai_worker.tts.fish_client</title>
<path fill="none" stroke="black" d="M1529.73,-18.24C1630.39,-18.61 1814.88,-25.78 1858.53,-72 1911.06,-127.63 1893.16,-227.99 1880.16,-276.81"/>
<polygon fill="black" stroke="black" points="1877.49,-286.33 1875.85,-275.49 1878.51,-282.69 1880.19,-276.7 1880.19,-276.7 1880.19,-276.7 1878.51,-282.69 1884.52,-277.91 1877.49,-286.33"/>
</g>
<!-- ai_worker.core.processor&#45;&gt;ai_worker.core.gpu_manager -->
<g id="edge6" class="edge">
<title>ai_worker.core.processor&#45;&gt;ai_worker.core.gpu_manager</title>
<path fill="none" stroke="black" d="M1393.59,-108.48C1354.19,-118.33 1304.81,-130.68 1263.83,-140.93"/>
<polygon fill="black" stroke="black" points="1254.24,-143.32 1262.85,-136.53 1257.91,-142.41 1263.94,-140.9 1263.94,-140.9 1263.94,-140.9 1257.91,-142.41 1265.03,-145.26 1254.24,-143.32"/>
</g>
<!-- ai_worker.renderer.layout -->
<g id="node14" class="node">
<title>ai_worker.renderer.layout</title>
<polygon fill="none" stroke="black" points="2167.21,-180 2005.84,-180 2005.84,-144 2167.21,-144 2167.21,-180"/>
<text text-anchor="middle" x="2086.53" y="-157.8" font-family="Times,serif" font-size="14.00">ai_worker.renderer.layout</text>
</g>
<!-- ai_worker.core.processor&#45;&gt;ai_worker.renderer.layout -->
<g id="edge7" class="edge">
<title>ai_worker.core.processor&#45;&gt;ai_worker.renderer.layout</title>
<path fill="none" stroke="black" d="M1542.75,-99.9C1658.23,-112.88 1872.31,-136.93 1994.58,-150.67"/>
<polygon fill="black" stroke="black" points="2004.19,-151.75 1993.75,-155.1 2000.43,-151.33 1994.25,-150.63 1994.25,-150.63 1994.25,-150.63 2000.43,-151.33 1994.75,-146.16 2004.19,-151.75"/>
</g>
<!-- ai_worker.renderer.thumbnail -->
<g id="node16" class="node">
<title>ai_worker.renderer.thumbnail</title>
<polygon fill="none" stroke="black" points="2368.1,-180 2184.95,-180 2184.95,-144 2368.1,-144 2368.1,-180"/>
<text text-anchor="middle" x="2276.53" y="-157.8" font-family="Times,serif" font-size="14.00">ai_worker.renderer.thumbnail</text>
</g>
<!-- ai_worker.core.processor&#45;&gt;ai_worker.renderer.thumbnail -->
<g id="edge8" class="edge">
<title>ai_worker.core.processor&#45;&gt;ai_worker.renderer.thumbnail</title>
<path fill="none" stroke="black" d="M1542.77,-95.94C1697.63,-105.76 2036.57,-128.02 2173.43,-143.71"/>
<polygon fill="black" stroke="black" points="2183.28,-144.87 2172.82,-148.17 2179.52,-144.43 2173.35,-143.7 2173.35,-143.7 2173.35,-143.7 2179.52,-144.43 2173.88,-139.23 2183.28,-144.87"/>
</g>
<!-- ai_worker.scene.analyzer -->
<g id="node18" class="node">
<title>ai_worker.scene.analyzer</title>
<polygon fill="none" stroke="black" points="718.65,-252 560.4,-252 560.4,-216 718.65,-216 718.65,-252"/>
<text text-anchor="middle" x="639.53" y="-229.8" font-family="Times,serif" font-size="14.00">ai_worker.scene.analyzer</text>
</g>
<!-- ai_worker.core.processor&#45;&gt;ai_worker.scene.analyzer -->
<g id="edge9" class="edge">
<title>ai_worker.core.processor&#45;&gt;ai_worker.scene.analyzer</title>
<path fill="none" stroke="black" d="M1405.51,-108.49C1380.08,-117.35 1350.41,-129.36 1325.53,-144 1304.05,-156.64 1305.58,-170.53 1282.53,-180 1184.98,-220.06 883.09,-229.86 730.21,-232.24"/>
<polygon fill="black" stroke="black" points="720.24,-232.39 730.17,-227.74 724.02,-232.34 730.24,-232.24 730.24,-232.24 730.24,-232.24 724.02,-232.34 730.3,-236.74 720.24,-232.39"/>
</g>
<!-- ai_worker.scene.director -->
<g id="node19" class="node">
<title>ai_worker.scene.director</title>
<polygon fill="none" stroke="black" points="821.71,-180 667.34,-180 667.34,-144 821.71,-144 821.71,-180"/>
<text text-anchor="middle" x="744.53" y="-157.8" font-family="Times,serif" font-size="14.00">ai_worker.scene.director</text>
</g>
<!-- ai_worker.core.processor&#45;&gt;ai_worker.scene.director -->
<g id="edge10" class="edge">
<title>ai_worker.core.processor&#45;&gt;ai_worker.scene.director</title>
<path fill="none" stroke="black" d="M1384.44,-106.72C1381.44,-107.18 1378.46,-107.61 1375.53,-108 1168.34,-135.87 1114.73,-125.09 906.53,-144 882.59,-146.17 856.7,-148.78 832.78,-151.29"/>
<polygon fill="black" stroke="black" points="823.15,-152.3 832.63,-146.78 826.91,-151.91 833.1,-151.25 833.1,-151.25 833.1,-151.25 826.91,-151.91 833.57,-155.73 823.15,-152.3"/>
</g>
<!-- ai_worker.scene.validator -->
<g id="node21" class="node">
<title>ai_worker.scene.validator</title>
<polygon fill="none" stroke="black" points="1075.83,-180 915.23,-180 915.23,-144 1075.83,-144 1075.83,-180"/>
<text text-anchor="middle" x="995.53" y="-157.8" font-family="Times,serif" font-size="14.00">ai_worker.scene.validator</text>
</g>
<!-- ai_worker.core.processor&#45;&gt;ai_worker.scene.validator -->
<g id="edge11" class="edge">
<title>ai_worker.core.processor&#45;&gt;ai_worker.scene.validator</title>
<path fill="none" stroke="black" d="M1384.42,-106.54C1381.42,-107.05 1378.45,-107.54 1375.53,-108 1250.33,-127.81 1215.17,-124 1087.05,-143.66"/>
<polygon fill="black" stroke="black" points="1077.22,-145.19 1086.41,-139.21 1080.96,-144.61 1087.1,-143.66 1087.1,-143.66 1087.1,-143.66 1080.96,-144.61 1087.79,-148.1 1077.22,-145.19"/>
</g>
<!-- ai_worker.script.chunker -->
<g id="node23" class="node">
<title>ai_worker.script.chunker</title>
<polygon fill="none" stroke="black" points="611.5,-180 455.56,-180 455.56,-144 611.5,-144 611.5,-180"/>
<text text-anchor="middle" x="533.53" y="-157.8" font-family="Times,serif" font-size="14.00">ai_worker.script.chunker</text>
</g>
<!-- ai_worker.core.processor&#45;&gt;ai_worker.script.chunker -->
<g id="edge12" class="edge">
<title>ai_worker.core.processor&#45;&gt;ai_worker.script.chunker</title>
<path fill="none" stroke="black" d="M1384.46,-106.82C1381.45,-107.25 1378.46,-107.64 1375.53,-108 1058.77,-146.35 976.23,-114.47 658.53,-144 646.92,-145.08 634.74,-146.44 622.73,-147.93"/>
<polygon fill="black" stroke="black" points="612.97,-149.17 622.32,-143.44 616.72,-148.69 622.89,-147.91 622.89,-147.91 622.89,-147.91 616.72,-148.69 623.46,-152.37 612.97,-149.17"/>
</g>
<!-- ai_worker.script.client -->
<g id="node24" class="node">
<title>ai_worker.script.client</title>
<polygon fill="none" stroke="black" points="309.5,-324 167.55,-324 167.55,-288 309.5,-288 309.5,-324"/>
<text text-anchor="middle" x="238.53" y="-301.8" font-family="Times,serif" font-size="14.00">ai_worker.script.client</text>
</g>
<!-- ai_worker.core.processor&#45;&gt;ai_worker.script.client -->
<g id="edge13" class="edge">
<title>ai_worker.core.processor&#45;&gt;ai_worker.script.client</title>
<path fill="none" stroke="black" d="M1422.73,-108.5C1402.68,-117.86 1378.58,-130.28 1358.53,-144 1338.79,-157.51 1340.3,-170.09 1318.53,-180 1140.27,-261.11 541.35,-292.86 320.88,-301.98"/>
<polygon fill="black" stroke="black" points="310.95,-302.38 320.76,-297.48 314.73,-302.23 320.94,-301.97 320.94,-301.97 320.94,-301.97 314.73,-302.23 321.13,-306.47 310.95,-302.38"/>
</g>
<!-- ai_worker.core.processor&#45;&gt;ai_worker.tts.fish_client -->
<g id="edge14" class="edge">
<title>ai_worker.core.processor&#45;&gt;ai_worker.tts.fish_client</title>
<path fill="none" stroke="black" d="M1542.48,-94.5C1603.8,-99.69 1689.68,-112.51 1758.53,-144 1804.8,-165.16 1819.77,-173.36 1847.53,-216 1859.4,-234.24 1865.43,-258.22 1868.48,-276.69"/>
<polygon fill="black" stroke="black" points="1869.87,-286.44 1864,-277.18 1869.34,-282.7 1868.46,-276.54 1868.46,-276.54 1868.46,-276.54 1869.34,-282.7 1872.91,-275.9 1869.87,-286.44"/>
</g>
<!-- ai_worker.video.comfy_client -->
<g id="node33" class="node">
<title>ai_worker.video.comfy_client</title>
<polygon fill="none" stroke="black" points="1551.89,-180 1367.17,-180 1367.17,-144 1551.89,-144 1551.89,-180"/>
<text text-anchor="middle" x="1459.53" y="-157.8" font-family="Times,serif" font-size="14.00">ai_worker.video.comfy_client</text>
</g>
<!-- ai_worker.core.processor&#45;&gt;ai_worker.video.comfy_client -->
<g id="edge15" class="edge">
<title>ai_worker.core.processor&#45;&gt;ai_worker.video.comfy_client</title>
<path fill="none" stroke="black" d="M1462.54,-108.3C1462.12,-115.68 1461.61,-124.48 1461.14,-132.75"/>
<polygon fill="black" stroke="black" points="1460.57,-142.68 1456.65,-132.44 1460.79,-138.9 1461.15,-132.7 1461.15,-132.7 1461.15,-132.7 1460.79,-138.9 1465.64,-132.95 1460.57,-142.68"/>
</g>
<!-- ai_worker.video.manager -->
<g id="node35" class="node">
<title>ai_worker.video.manager</title>
<polygon fill="none" stroke="black" points="1729.05,-180 1570,-180 1570,-144 1729.05,-144 1729.05,-180"/>
<text text-anchor="middle" x="1649.53" y="-157.8" font-family="Times,serif" font-size="14.00">ai_worker.video.manager</text>
</g>
<!-- ai_worker.core.processor&#45;&gt;ai_worker.video.manager -->
<g id="edge16" class="edge">
<title>ai_worker.core.processor&#45;&gt;ai_worker.video.manager</title>
<path fill="none" stroke="black" d="M1509.98,-108.48C1535.16,-117.96 1566.46,-129.74 1593.03,-139.74"/>
<polygon fill="black" stroke="black" points="1602.2,-143.19 1591.26,-143.88 1598.66,-141.86 1592.84,-139.67 1592.84,-139.67 1592.84,-139.67 1598.66,-141.86 1594.43,-135.46 1602.2,-143.19"/>
</g>
<!-- ai_worker.video.prompt_engine -->
<g id="node36" class="node">
<title>ai_worker.video.prompt_engine</title>
<polygon fill="none" stroke="black" points="1500.33,-252 1304.72,-252 1304.72,-216 1500.33,-216 1500.33,-252"/>
<text text-anchor="middle" x="1402.53" y="-229.8" font-family="Times,serif" font-size="14.00">ai_worker.video.prompt_engine</text>
</g>
<!-- ai_worker.core.processor&#45;&gt;ai_worker.video.prompt_engine -->
<g id="edge17" class="edge">
<title>ai_worker.core.processor&#45;&gt;ai_worker.video.prompt_engine</title>
<path fill="none" stroke="black" d="M1542.42,-91.91C1642.69,-95.79 1796.25,-112.49 1738.53,-180 1706.95,-216.93 1576.44,-209.06 1511.69,-215.97"/>
<polygon fill="black" stroke="black" points="1501.98,-217.23 1511.32,-211.48 1505.73,-216.74 1511.9,-215.94 1511.9,-215.94 1511.9,-215.94 1505.73,-216.74 1512.48,-220.4 1501.98,-217.23"/>
</g>
<!-- ai_worker.pipeline -->
<g id="node7" class="node">
<title>ai_worker.pipeline</title>
<polygon fill="none" stroke="black" points="948.2,-36 826.85,-36 826.85,0 948.2,0 948.2,-36"/>
<text text-anchor="middle" x="887.53" y="-13.8" font-family="Times,serif" font-size="14.00">ai_worker.pipeline</text>
</g>
<!-- ai_worker.pipeline.content_processor -->
<g id="node8" class="node">
<title>ai_worker.pipeline.content_processor</title>
<polygon fill="none" stroke="black" points="1000.88,-108 774.18,-108 774.18,-72 1000.88,-72 1000.88,-108"/>
<text text-anchor="middle" x="887.53" y="-85.8" font-family="Times,serif" font-size="14.00">ai_worker.pipeline.content_processor</text>
</g>
<!-- ai_worker.pipeline&#45;&gt;ai_worker.pipeline.content_processor -->
<g id="edge18" class="edge">
<title>ai_worker.pipeline&#45;&gt;ai_worker.pipeline.content_processor</title>
<path fill="none" stroke="black" d="M887.53,-36.3C887.53,-43.68 887.53,-52.48 887.53,-60.75"/>
<polygon fill="black" stroke="black" points="887.53,-70.68 883.03,-60.68 887.53,-66.9 887.53,-60.68 887.53,-60.68 887.53,-60.68 887.53,-66.9 892.03,-60.68 887.53,-70.68"/>
</g>
<!-- ai_worker.pipeline.content_processor&#45;&gt;ai_worker.core.gpu_manager -->
<g id="edge19" class="edge">
<title>ai_worker.pipeline.content_processor&#45;&gt;ai_worker.core.gpu_manager</title>
<path fill="none" stroke="black" d="M961.46,-108.48C1003.21,-118.36 1055.56,-130.74 1098.95,-141"/>
<polygon fill="black" stroke="black" points="1108.59,-143.28 1097.82,-145.35 1104.91,-142.41 1098.85,-140.98 1098.85,-140.98 1098.85,-140.98 1104.91,-142.41 1099.89,-136.6 1108.59,-143.28"/>
</g>
<!-- ai_worker.pipeline.content_processor&#45;&gt;ai_worker.scene.analyzer -->
<g id="edge20" class="edge">
<title>ai_worker.pipeline.content_processor&#45;&gt;ai_worker.scene.analyzer</title>
<path fill="none" stroke="black" d="M773.73,-105.74C724.96,-114.34 675.33,-126.9 658.53,-144 642.95,-159.84 638.76,-185.13 638.14,-204.71"/>
<polygon fill="black" stroke="black" points="638.13,-214.53 633.64,-204.53 638.13,-210.75 638.14,-204.53 638.14,-204.53 638.14,-204.53 638.13,-210.75 642.64,-204.53 638.13,-214.53"/>
</g>
<!-- ai_worker.pipeline.content_processor&#45;&gt;ai_worker.scene.director -->
<g id="edge21" class="edge">
<title>ai_worker.pipeline.content_processor&#45;&gt;ai_worker.scene.director</title>
<path fill="none" stroke="black" d="M851.81,-108.48C832.99,-117.7 809.7,-129.1 789.64,-138.92"/>
<polygon fill="black" stroke="black" points="780.88,-143.2 787.89,-134.77 784.28,-141.54 789.86,-138.81 789.86,-138.81 789.86,-138.81 784.28,-141.54 791.84,-142.85 780.88,-143.2"/>
</g>
<!-- ai_worker.pipeline.content_processor&#45;&gt;ai_worker.scene.validator -->
<g id="edge22" class="edge">
<title>ai_worker.pipeline.content_processor&#45;&gt;ai_worker.scene.validator</title>
<path fill="none" stroke="black" d="M914.5,-108.48C928.14,-117.32 944.86,-128.16 959.57,-137.7"/>
<polygon fill="black" stroke="black" points="967.87,-143.08 957.04,-141.41 964.7,-141.02 959.48,-137.64 959.48,-137.64 959.48,-137.64 964.7,-141.02 961.93,-133.86 967.87,-143.08"/>
</g>
<!-- ai_worker.pipeline.content_processor&#45;&gt;ai_worker.script.chunker -->
<g id="edge23" class="edge">
<title>ai_worker.pipeline.content_processor&#45;&gt;ai_worker.script.chunker</title>
<path fill="none" stroke="black" d="M799.11,-108.48C745.27,-119.13 676.71,-132.69 622.73,-143.36"/>
<polygon fill="black" stroke="black" points="612.98,-145.29 621.92,-138.93 616.69,-144.55 622.79,-143.35 622.79,-143.35 622.79,-143.35 616.69,-144.55 623.67,-147.76 612.98,-145.29"/>
</g>
<!-- ai_worker.pipeline.content_processor&#45;&gt;ai_worker.tts.fish_client -->
<g id="edge24" class="edge">
<title>ai_worker.pipeline.content_processor&#45;&gt;ai_worker.tts.fish_client</title>
<path fill="none" stroke="black" d="M885.59,-108.16C884.33,-128.73 885.86,-162.59 906.53,-180 983.75,-245.05 1726.93,-165.8 1814.53,-216 1826.87,-223.07 1845.17,-254.23 1857.69,-277.7"/>
<polygon fill="black" stroke="black" points="1862.26,-286.43 1853.63,-279.66 1860.5,-283.08 1857.62,-277.57 1857.62,-277.57 1857.62,-277.57 1860.5,-283.08 1861.61,-275.48 1862.26,-286.43"/>
</g>
<!-- ai_worker.pipeline.content_processor&#45;&gt;ai_worker.video.comfy_client -->
<g id="edge25" class="edge">
<title>ai_worker.pipeline.content_processor&#45;&gt;ai_worker.video.comfy_client</title>
<path fill="none" stroke="black" d="M1001.22,-104.91C1104.54,-117.56 1255.68,-136.05 1355.78,-148.3"/>
<polygon fill="black" stroke="black" points="1365.61,-149.51 1355.13,-152.76 1361.85,-149.05 1355.68,-148.29 1355.68,-148.29 1355.68,-148.29 1361.85,-149.05 1356.23,-143.82 1365.61,-149.51"/>
</g>
<!-- ai_worker.pipeline.content_processor&#45;&gt;ai_worker.video.manager -->
<g id="edge26" class="edge">
<title>ai_worker.pipeline.content_processor&#45;&gt;ai_worker.video.manager</title>
<path fill="none" stroke="black" d="M1001.35,-96.13C1133.08,-102.94 1356.69,-117.18 1558.43,-143.81"/>
<polygon fill="black" stroke="black" points="1568.33,-145.13 1557.83,-148.27 1564.59,-144.63 1558.42,-143.81 1558.42,-143.81 1558.42,-143.81 1564.59,-144.63 1559.02,-139.35 1568.33,-145.13"/>
</g>
<!-- ai_worker.pipeline.content_processor&#45;&gt;ai_worker.video.prompt_engine -->
<g id="edge27" class="edge">
<title>ai_worker.pipeline.content_processor&#45;&gt;ai_worker.video.prompt_engine</title>
<path fill="none" stroke="black" d="M877.45,-108.41C867.44,-128.27 855.9,-160.51 873.53,-180 901.13,-210.51 1146.87,-224.23 1293.51,-229.75"/>
<polygon fill="black" stroke="black" points="1303.11,-230.1 1292.95,-234.23 1299.33,-229.96 1293.12,-229.73 1293.12,-229.73 1293.12,-229.73 1299.33,-229.96 1293.29,-225.24 1303.11,-230.1"/>
</g>
<!-- ai_worker.renderer -->
<g id="node9" class="node">
<title>ai_worker.renderer</title>
<polygon fill="none" stroke="black" points="2242.97,-36 2120.09,-36 2120.09,0 2242.97,0 2242.97,-36"/>
<text text-anchor="middle" x="2181.53" y="-13.8" font-family="Times,serif" font-size="14.00">ai_worker.renderer</text>
</g>
<!-- ai_worker.renderer.composer -->
<g id="node13" class="node">
<title>ai_worker.renderer.composer</title>
<polygon fill="none" stroke="black" points="2271.93,-108 2091.12,-108 2091.12,-72 2271.93,-72 2271.93,-108"/>
<text text-anchor="middle" x="2181.53" y="-85.8" font-family="Times,serif" font-size="14.00">ai_worker.renderer.composer</text>
</g>
<!-- ai_worker.renderer&#45;&gt;ai_worker.renderer.composer -->
<g id="edge28" class="edge">
<title>ai_worker.renderer&#45;&gt;ai_worker.renderer.composer</title>
<path fill="none" stroke="black" d="M2181.53,-36.3C2181.53,-43.68 2181.53,-52.48 2181.53,-60.75"/>
<polygon fill="black" stroke="black" points="2181.53,-70.68 2177.03,-60.68 2181.53,-66.9 2181.53,-60.68 2181.53,-60.68 2181.53,-60.68 2181.53,-66.9 2186.03,-60.68 2181.53,-70.68"/>
</g>
<!-- ai_worker.renderer&#45;&gt;ai_worker.renderer.layout -->
<g id="edge29" class="edge">
<title>ai_worker.renderer&#45;&gt;ai_worker.renderer.layout</title>
<path fill="none" stroke="black" d="M2125.12,-36.41C2108.47,-44.48 2092.14,-55.94 2082.53,-72 2071.67,-90.13 2073.54,-114.26 2077.65,-132.82"/>
<polygon fill="black" stroke="black" points="2080.1,-142.38 2073.25,-133.81 2079.16,-138.71 2077.61,-132.69 2077.61,-132.69 2077.61,-132.69 2079.16,-138.71 2081.97,-131.57 2080.1,-142.38"/>
</g>
<!-- ai_worker.renderer&#45;&gt;ai_worker.renderer.thumbnail -->
<g id="edge30" class="edge">
<title>ai_worker.renderer&#45;&gt;ai_worker.renderer.thumbnail</title>
<path fill="none" stroke="black" d="M2237.93,-36.41C2254.59,-44.48 2270.91,-55.94 2280.53,-72 2291.39,-90.13 2289.51,-114.26 2285.41,-132.82"/>
<polygon fill="black" stroke="black" points="2282.96,-142.38 2281.08,-131.57 2283.9,-138.71 2285.44,-132.69 2285.44,-132.69 2285.44,-132.69 2283.9,-138.71 2289.8,-133.81 2282.96,-142.38"/>
</g>
<!-- ai_worker.renderer._encode -->
<g id="node10" class="node">
<title>ai_worker.renderer._encode</title>
<polygon fill="none" stroke="black" points="2351.04,-252 2178.02,-252 2178.02,-216 2351.04,-216 2351.04,-252"/>
<text text-anchor="middle" x="2264.53" y="-229.8" font-family="Times,serif" font-size="14.00">ai_worker.renderer._encode</text>
</g>
<!-- ai_worker.renderer._frames -->
<g id="node11" class="node">
<title>ai_worker.renderer._frames</title>
<polygon fill="none" stroke="black" points="2474.26,-324 2302.79,-324 2302.79,-288 2474.26,-288 2474.26,-324"/>
<text text-anchor="middle" x="2388.53" y="-301.8" font-family="Times,serif" font-size="14.00">ai_worker.renderer._frames</text>
</g>
<!-- ai_worker.renderer._encode&#45;&gt;ai_worker.renderer._frames -->
<g id="edge31" class="edge">
<title>ai_worker.renderer._encode&#45;&gt;ai_worker.renderer._frames</title>
<path fill="none" stroke="black" d="M2295.5,-252.48C2311.45,-261.49 2331.09,-272.58 2348.21,-282.24"/>
<polygon fill="black" stroke="black" points="2356.89,-287.14 2345.97,-286.14 2353.6,-285.28 2348.18,-282.22 2348.18,-282.22 2348.18,-282.22 2353.6,-285.28 2350.39,-278.31 2356.89,-287.14"/>
</g>
<!-- ai_worker.video.video_utils -->
<g id="node37" class="node">
<title>ai_worker.video.video_utils</title>
<polygon fill="none" stroke="black" points="2212.07,-324 2038.99,-324 2038.99,-288 2212.07,-288 2212.07,-324"/>
<text text-anchor="middle" x="2125.53" y="-301.8" font-family="Times,serif" font-size="14.00">ai_worker.video.video_utils</text>
</g>
<!-- ai_worker.renderer._encode&#45;&gt;ai_worker.video.video_utils -->
<g id="edge32" class="edge">
<title>ai_worker.renderer._encode&#45;&gt;ai_worker.video.video_utils</title>
<path fill="none" stroke="black" d="M2229.81,-252.48C2211.6,-261.66 2189.09,-272.99 2169.65,-282.78"/>
<polygon fill="black" stroke="black" points="2160.89,-287.19 2167.8,-278.67 2164.27,-285.49 2169.82,-282.69 2169.82,-282.69 2169.82,-282.69 2164.27,-285.49 2171.85,-286.71 2160.89,-287.19"/>
</g>
<!-- ai_worker.renderer._frames&#45;&gt;ai_worker.renderer.layout -->
<g id="edge33" class="edge">
<title>ai_worker.renderer._frames&#45;&gt;ai_worker.renderer.layout</title>
<path fill="none" stroke="black" d="M2394.49,-287.82C2395.68,-267.56 2390.07,-234.33 2369.53,-216 2369.07,-215.59 2261.11,-194.79 2178.63,-179.37"/>
<polygon fill="black" stroke="black" points="2168.89,-177.56 2179.54,-174.97 2172.6,-178.25 2178.72,-179.39 2178.72,-179.39 2178.72,-179.39 2172.6,-178.25 2177.89,-183.81 2168.89,-177.56"/>
</g>
<!-- ai_worker.renderer._tts -->
<g id="node12" class="node">
<title>ai_worker.renderer._tts</title>
<polygon fill="none" stroke="black" points="2159.83,-252 2013.22,-252 2013.22,-216 2159.83,-216 2159.83,-252"/>
<text text-anchor="middle" x="2086.53" y="-229.8" font-family="Times,serif" font-size="14.00">ai_worker.renderer._tts</text>
</g>
<!-- ai_worker.renderer._tts&#45;&gt;ai_worker.tts.fish_client -->
<g id="edge34" class="edge">
<title>ai_worker.renderer._tts&#45;&gt;ai_worker.tts.fish_client</title>
<path fill="none" stroke="black" d="M2032.83,-252.48C2003.22,-262.12 1966.26,-274.16 1935.2,-284.27"/>
<polygon fill="black" stroke="black" points="1926.07,-287.24 1934.19,-279.87 1929.67,-286.07 1935.58,-284.15 1935.58,-284.15 1935.58,-284.15 1929.67,-286.07 1936.97,-288.42 1926.07,-287.24"/>
</g>
<!-- ai_worker.renderer.composer&#45;&gt;ai_worker.renderer.layout -->
<g id="edge35" class="edge">
<title>ai_worker.renderer.composer&#45;&gt;ai_worker.renderer.layout</title>
<path fill="none" stroke="black" d="M2158.04,-108.3C2146.28,-116.97 2131.86,-127.6 2119.05,-137.04"/>
<polygon fill="black" stroke="black" points="2111.05,-142.93 2116.43,-133.38 2114.1,-140.69 2119.1,-137 2119.1,-137 2119.1,-137 2114.1,-140.69 2121.77,-140.62 2111.05,-142.93"/>
</g>
<!-- ai_worker.renderer.composer&#45;&gt;ai_worker.renderer.thumbnail -->
<g id="edge36" class="edge">
<title>ai_worker.renderer.composer&#45;&gt;ai_worker.renderer.thumbnail</title>
<path fill="none" stroke="black" d="M2205.01,-108.3C2216.77,-116.97 2231.2,-127.6 2244.01,-137.04"/>
<polygon fill="black" stroke="black" points="2252,-142.93 2241.28,-140.62 2248.96,-140.69 2243.95,-137 2243.95,-137 2243.95,-137 2248.96,-140.69 2246.62,-133.38 2252,-142.93"/>
</g>
<!-- ai_worker.renderer.layout&#45;&gt;ai_worker.renderer._encode -->
<g id="edge37" class="edge">
<title>ai_worker.renderer.layout&#45;&gt;ai_worker.renderer._encode</title>
<path fill="none" stroke="black" d="M2130.99,-180.48C2154.97,-189.92 2184.77,-201.63 2210.13,-211.61"/>
<polygon fill="black" stroke="black" points="2219.19,-215.17 2208.24,-215.7 2215.68,-213.79 2209.89,-211.51 2209.89,-211.51 2209.89,-211.51 2215.68,-213.79 2211.54,-207.32 2219.19,-215.17"/>
</g>
<!-- ai_worker.renderer.layout&#45;&gt;ai_worker.renderer._frames -->
<g id="edge38" class="edge">
<title>ai_worker.renderer.layout&#45;&gt;ai_worker.renderer._frames</title>
<path fill="none" stroke="black" d="M2167.69,-179.89C2245.49,-195.25 2351.08,-215.6 2351.53,-216 2368.7,-231.33 2375.44,-257.06 2379.57,-276.93"/>
<polygon fill="black" stroke="black" points="2381.52,-286.63 2375.14,-277.71 2380.78,-282.92 2379.55,-276.83 2379.55,-276.83 2379.55,-276.83 2380.78,-282.92 2383.96,-275.94 2381.52,-286.63"/>
</g>
<!-- ai_worker.renderer.layout&#45;&gt;ai_worker.renderer._tts -->
<g id="edge39" class="edge">
<title>ai_worker.renderer.layout&#45;&gt;ai_worker.renderer._tts</title>
<path fill="none" stroke="black" d="M2086.53,-180.3C2086.53,-187.68 2086.53,-196.48 2086.53,-204.75"/>
<polygon fill="black" stroke="black" points="2086.53,-214.68 2082.03,-204.68 2086.53,-210.9 2086.53,-204.68 2086.53,-204.68 2086.53,-204.68 2086.53,-210.9 2091.03,-204.68 2086.53,-214.68"/>
</g>
<!-- ai_worker.renderer.layout&#45;&gt;ai_worker.tts.fish_client -->
<g id="edge40" class="edge">
<title>ai_worker.renderer.layout&#45;&gt;ai_worker.tts.fish_client</title>
<path fill="none" stroke="black" d="M2059.5,-180.32C2043.48,-190.62 2022.8,-203.98 2004.53,-216 1970.89,-238.12 1932.72,-263.72 1905.92,-281.77"/>
<polygon fill="black" stroke="black" points="1897.95,-287.14 1903.73,-277.82 1901.09,-285.02 1906.25,-281.55 1906.25,-281.55 1906.25,-281.55 1901.09,-285.02 1908.76,-285.28 1897.95,-287.14"/>
</g>
<!-- ai_worker.renderer.subtitle -->
<g id="node15" class="node">
<title>ai_worker.renderer.subtitle</title>
<polygon fill="none" stroke="black" points="2428.33,-36 2260.73,-36 2260.73,0 2428.33,0 2428.33,-36"/>
<text text-anchor="middle" x="2344.53" y="-13.8" font-family="Times,serif" font-size="14.00">ai_worker.renderer.subtitle</text>
</g>
<!-- ai_worker.scene -->
<g id="node17" class="node">
<title>ai_worker.scene</title>
<polygon fill="none" stroke="black" points="619.2,-108 511.86,-108 511.86,-72 619.2,-72 619.2,-108"/>
<text text-anchor="middle" x="565.53" y="-85.8" font-family="Times,serif" font-size="14.00">ai_worker.scene</text>
</g>
<!-- ai_worker.scene&#45;&gt;ai_worker.scene.analyzer -->
<g id="edge41" class="edge">
<title>ai_worker.scene&#45;&gt;ai_worker.scene.analyzer</title>
<path fill="none" stroke="black" d="M511.43,-101.18C487.26,-108.72 461,-121.71 446.53,-144 437.81,-157.42 436.83,-167.28 446.53,-180 459.62,-197.17 505.47,-210.16 549.19,-218.98"/>
<polygon fill="black" stroke="black" points="558.75,-220.84 548.07,-223.34 555.04,-220.12 548.94,-218.93 548.94,-218.93 548.94,-218.93 555.04,-220.12 549.8,-214.51 558.75,-220.84"/>
</g>
<!-- ai_worker.scene&#45;&gt;ai_worker.scene.director -->
<g id="edge42" class="edge">
<title>ai_worker.scene&#45;&gt;ai_worker.scene.director</title>
<path fill="none" stroke="black" d="M610.24,-108.48C634.35,-117.92 664.32,-129.63 689.82,-139.61"/>
<polygon fill="black" stroke="black" points="698.95,-143.17 687.99,-143.72 695.42,-141.8 689.63,-139.53 689.63,-139.53 689.63,-139.53 695.42,-141.8 691.27,-135.34 698.95,-143.17"/>
</g>
<!-- ai_worker.scene.strategy -->
<g id="node20" class="node">
<title>ai_worker.scene.strategy</title>
<polygon fill="none" stroke="black" points="399.11,-180 243.95,-180 243.95,-144 399.11,-144 399.11,-180"/>
<text text-anchor="middle" x="321.53" y="-157.8" font-family="Times,serif" font-size="14.00">ai_worker.scene.strategy</text>
</g>
<!-- ai_worker.scene&#45;&gt;ai_worker.scene.strategy -->
<g id="edge43" class="edge">
<title>ai_worker.scene&#45;&gt;ai_worker.scene.strategy</title>
<path fill="none" stroke="black" d="M511.38,-106.54C476.47,-116.55 430.7,-129.68 392.84,-140.54"/>
<polygon fill="black" stroke="black" points="383.56,-143.2 391.93,-136.12 387.2,-142.16 393.17,-140.45 393.17,-140.45 393.17,-140.45 387.2,-142.16 394.42,-144.77 383.56,-143.2"/>
</g>
<!-- ai_worker.scene&#45;&gt;ai_worker.scene.validator -->
<g id="edge44" class="edge">
<title>ai_worker.scene&#45;&gt;ai_worker.scene.validator</title>
<path fill="none" stroke="black" d="M619.55,-99.79C690.94,-111.42 817.71,-132.05 904.14,-146.12"/>
<polygon fill="black" stroke="black" points="913.79,-147.69 903.2,-150.53 910.06,-147.09 903.92,-146.09 903.92,-146.09 903.92,-146.09 910.06,-147.09 904.65,-141.65 913.79,-147.69"/>
</g>
<!-- ai_worker.scene.director&#45;&gt;ai_worker.scene.analyzer -->
<g id="edge45" class="edge">
<title>ai_worker.scene.director&#45;&gt;ai_worker.scene.analyzer</title>
<path fill="none" stroke="black" d="M718.3,-180.48C705.05,-189.32 688.78,-200.16 674.48,-209.7"/>
<polygon fill="black" stroke="black" points="666.43,-215.06 672.26,-205.77 669.58,-212.97 674.75,-209.52 674.75,-209.52 674.75,-209.52 669.58,-212.97 677.25,-213.26 666.43,-215.06"/>
</g>
<!-- ai_worker.video.image_filter -->
<g id="node34" class="node">
<title>ai_worker.video.image_filter</title>
<polygon fill="none" stroke="black" points="1805.16,-252 1625.89,-252 1625.89,-216 1805.16,-216 1805.16,-252"/>
<text text-anchor="middle" x="1715.53" y="-229.8" font-family="Times,serif" font-size="14.00">ai_worker.video.image_filter</text>
</g>
<!-- ai_worker.scene.director&#45;&gt;ai_worker.video.image_filter -->
<g id="edge46" class="edge">
<title>ai_worker.scene.director&#45;&gt;ai_worker.video.image_filter</title>
<path fill="none" stroke="black" d="M822.18,-174.29C839.08,-176.45 856.88,-178.5 873.53,-180 1199.71,-209.33 1286.62,-180.28 1614.83,-215.78"/>
<polygon fill="black" stroke="black" points="1624.39,-216.83 1613.96,-220.21 1620.64,-216.41 1614.45,-215.74 1614.45,-215.74 1614.45,-215.74 1620.64,-216.41 1614.94,-211.26 1624.39,-216.83"/>
</g>
<!-- ai_worker.script -->
<g id="node22" class="node">
<title>ai_worker.script</title>
<polygon fill="none" stroke="black" points="231.21,-108 123.85,-108 123.85,-72 231.21,-72 231.21,-108"/>
<text text-anchor="middle" x="177.53" y="-85.8" font-family="Times,serif" font-size="14.00">ai_worker.script</text>
</g>
<!-- ai_worker.script&#45;&gt;ai_worker.script.chunker -->
<g id="edge47" class="edge">
<title>ai_worker.script&#45;&gt;ai_worker.script.chunker</title>
<path fill="none" stroke="black" d="M231.6,-101.63C287.98,-112.72 377.29,-130.28 444.18,-143.43"/>
<polygon fill="black" stroke="black" points="453.94,-145.35 443.26,-147.84 450.23,-144.62 444.13,-143.42 444.13,-143.42 444.13,-143.42 450.23,-144.62 444.99,-139.01 453.94,-145.35"/>
</g>
<!-- ai_worker.script&#45;&gt;ai_worker.script.client -->
<g id="edge48" class="edge">
<title>ai_worker.script&#45;&gt;ai_worker.script.client</title>
<path fill="none" stroke="black" d="M182.09,-108.43C186.83,-126.4 194.52,-155.21 201.53,-180 210.98,-213.43 222.4,-251.71 230.03,-277"/>
<polygon fill="black" stroke="black" points="232.89,-286.48 225.69,-278.21 231.8,-282.86 230,-276.91 230,-276.91 230,-276.91 231.8,-282.86 234.31,-275.61 232.89,-286.48"/>
</g>
<!-- ai_worker.script.logger -->
<g id="node25" class="node">
<title>ai_worker.script.logger</title>
<polygon fill="none" stroke="black" points="525.84,-396 379.22,-396 379.22,-360 525.84,-360 525.84,-396"/>
<text text-anchor="middle" x="452.53" y="-373.8" font-family="Times,serif" font-size="14.00">ai_worker.script.logger</text>
</g>
<!-- ai_worker.script&#45;&gt;ai_worker.script.logger -->
<g id="edge49" class="edge">
<title>ai_worker.script&#45;&gt;ai_worker.script.logger</title>
<path fill="none" stroke="black" d="M186.79,-108.33C197.16,-126.97 215.08,-157.04 234.53,-180 293.44,-249.55 376.32,-317.99 421.01,-352.98"/>
<polygon fill="black" stroke="black" points="428.72,-358.98 418.06,-356.39 425.74,-356.66 420.83,-352.84 420.83,-352.84 420.83,-352.84 425.74,-356.66 423.59,-349.29 428.72,-358.98"/>
</g>
<!-- ai_worker.script.normalizer -->
<g id="node26" class="node">
<title>ai_worker.script.normalizer</title>
<polygon fill="none" stroke="black" points="334.27,-396 162.78,-396 162.78,-360 334.27,-360 334.27,-396"/>
<text text-anchor="middle" x="248.53" y="-373.8" font-family="Times,serif" font-size="14.00">ai_worker.script.normalizer</text>
</g>
<!-- ai_worker.script&#45;&gt;ai_worker.script.normalizer -->
<g id="edge50" class="edge">
<title>ai_worker.script&#45;&gt;ai_worker.script.normalizer</title>
<path fill="none" stroke="black" d="M169.92,-108.23C153.19,-148.9 117.84,-252.82 158.53,-324 165.77,-336.67 177.35,-346.61 189.84,-354.29"/>
<polygon fill="black" stroke="black" points="198.43,-359.13 187.51,-358.15 195.14,-357.27 189.72,-354.22 189.72,-354.22 189.72,-354.22 195.14,-357.27 191.93,-350.3 198.43,-359.13"/>
</g>
<!-- ai_worker.script.parser -->
<g id="node27" class="node">
<title>ai_worker.script.parser</title>
<polygon fill="none" stroke="black" points="145.06,-396 0,-396 0,-360 145.06,-360 145.06,-396"/>
<text text-anchor="middle" x="72.53" y="-373.8" font-family="Times,serif" font-size="14.00">ai_worker.script.parser</text>
</g>
<!-- ai_worker.script&#45;&gt;ai_worker.script.parser -->
<g id="edge51" class="edge">
<title>ai_worker.script&#45;&gt;ai_worker.script.parser</title>
<path fill="none" stroke="black" d="M164.6,-108.45C157.64,-118.46 149.31,-131.5 143.53,-144 110.86,-214.65 88.47,-304.15 78.46,-348.87"/>
<polygon fill="black" stroke="black" points="76.34,-358.56 74.08,-347.82 77.15,-354.86 78.48,-348.79 78.48,-348.79 78.48,-348.79 77.15,-354.86 82.87,-349.75 76.34,-358.56"/>
</g>
<!-- ai_worker.script.chunker&#45;&gt;ai_worker.scene.analyzer -->
<g id="edge52" class="edge">
<title>ai_worker.script.chunker&#45;&gt;ai_worker.scene.analyzer</title>
<path fill="none" stroke="black" d="M560,-180.48C573.38,-189.32 589.8,-200.16 604.24,-209.7"/>
<polygon fill="black" stroke="black" points="612.37,-215.07 601.55,-213.31 609.22,-212.98 604.03,-209.56 604.03,-209.56 604.03,-209.56 609.22,-212.98 606.51,-205.8 612.37,-215.07"/>
</g>
<!-- ai_worker.script.chunker&#45;&gt;ai_worker.script.logger -->
<g id="edge53" class="edge">
<title>ai_worker.script.chunker&#45;&gt;ai_worker.script.logger</title>
<path fill="none" stroke="black" d="M527.04,-180.15C513.05,-217.09 479.99,-304.45 463,-349.33"/>
<polygon fill="black" stroke="black" points="459.48,-358.63 458.81,-347.68 460.82,-355.09 463.02,-349.28 463.02,-349.28 463.02,-349.28 460.82,-355.09 467.23,-350.87 459.48,-358.63"/>
</g>
<!-- ai_worker.script.client&#45;&gt;ai_worker.script.logger -->
<g id="edge54" class="edge">
<title>ai_worker.script.client&#45;&gt;ai_worker.script.logger</title>
<path fill="none" stroke="black" d="M291.98,-324.48C321.32,-334.08 357.91,-346.05 388.74,-356.14"/>
<polygon fill="black" stroke="black" points="398.23,-359.24 387.33,-360.41 394.64,-358.06 388.73,-356.13 388.73,-356.13 388.73,-356.13 394.64,-358.06 390.13,-351.85 398.23,-359.24"/>
</g>
<!-- ai_worker.script.client&#45;&gt;ai_worker.script.normalizer -->
<g id="edge55" class="edge">
<title>ai_worker.script.client&#45;&gt;ai_worker.script.normalizer</title>
<path fill="none" stroke="black" d="M241,-324.3C242.07,-331.76 243.34,-340.68 244.53,-349.03"/>
<polygon fill="black" stroke="black" points="245.91,-358.69 240.04,-349.43 245.38,-354.95 244.5,-348.79 244.5,-348.79 244.5,-348.79 245.38,-354.95 248.95,-348.15 245.91,-358.69"/>
</g>
<!-- ai_worker.script.client&#45;&gt;ai_worker.script.parser -->
<g id="edge56" class="edge">
<title>ai_worker.script.client&#45;&gt;ai_worker.script.parser</title>
<path fill="none" stroke="black" d="M197.07,-324.48C174.9,-333.83 147.41,-345.43 123.89,-355.34"/>
<polygon fill="black" stroke="black" points="114.87,-359.14 122.34,-351.11 118.35,-357.68 124.08,-355.26 124.08,-355.26 124.08,-355.26 118.35,-357.68 125.83,-359.41 114.87,-359.14"/>
</g>
<!-- ai_worker.tts -->
<g id="node28" class="node">
<title>ai_worker.tts</title>
<polygon fill="none" stroke="black" points="1608.27,-252 1518.79,-252 1518.79,-216 1608.27,-216 1608.27,-252"/>
<text text-anchor="middle" x="1563.53" y="-229.8" font-family="Times,serif" font-size="14.00">ai_worker.tts</text>
</g>
<!-- ai_worker.tts&#45;&gt;ai_worker.tts.fish_client -->
<g id="edge57" class="edge">
<title>ai_worker.tts&#45;&gt;ai_worker.tts.fish_client</title>
<path fill="none" stroke="black" d="M1608.54,-249.79C1611.23,-250.57 1613.91,-251.31 1616.53,-252 1671.81,-266.57 1734.69,-279.67 1784.17,-289.21"/>
<polygon fill="black" stroke="black" points="1793.97,-291.08 1783.3,-293.62 1790.25,-290.37 1784.14,-289.2 1784.14,-289.2 1784.14,-289.2 1790.25,-290.37 1784.99,-284.78 1793.97,-291.08"/>
</g>
<!-- ai_worker.tts.normalizer -->
<g id="node30" class="node">
<title>ai_worker.tts.normalizer</title>
<polygon fill="none" stroke="black" points="1794.33,-396 1640.72,-396 1640.72,-360 1794.33,-360 1794.33,-396"/>
<text text-anchor="middle" x="1717.53" y="-373.8" font-family="Times,serif" font-size="14.00">ai_worker.tts.normalizer</text>
</g>
<!-- ai_worker.tts&#45;&gt;ai_worker.tts.normalizer -->
<g id="edge58" class="edge">
<title>ai_worker.tts&#45;&gt;ai_worker.tts.normalizer</title>
<path fill="none" stroke="black" d="M1582.41,-252.41C1609.57,-277.46 1659.81,-323.78 1690.78,-352.34"/>
<polygon fill="black" stroke="black" points="1698.08,-359.06 1687.67,-355.59 1695.3,-356.5 1690.72,-352.28 1690.72,-352.28 1690.72,-352.28 1695.3,-356.5 1693.77,-348.98 1698.08,-359.06"/>
</g>
<!-- ai_worker.tts.fish_client&#45;&gt;ai_worker.tts.normalizer -->
<g id="edge59" class="edge">
<title>ai_worker.tts.fish_client&#45;&gt;ai_worker.tts.normalizer</title>
<path fill="none" stroke="black" d="M1833.06,-324.48C1812.68,-333.75 1787.45,-345.22 1765.77,-355.07"/>
<polygon fill="black" stroke="black" points="1756.88,-359.11 1764.12,-350.88 1760.32,-357.55 1765.98,-354.98 1765.98,-354.98 1765.98,-354.98 1760.32,-357.55 1767.84,-359.07 1756.88,-359.11"/>
</g>
<!-- ai_worker.tts.number_reader -->
<g id="node31" class="node">
<title>ai_worker.tts.number_reader</title>
<polygon fill="none" stroke="black" points="1806.38,-468 1628.67,-468 1628.67,-432 1806.38,-432 1806.38,-468"/>
<text text-anchor="middle" x="1717.53" y="-445.8" font-family="Times,serif" font-size="14.00">ai_worker.tts.number_reader</text>
</g>
<!-- ai_worker.tts.normalizer&#45;&gt;ai_worker.tts.number_reader -->
<g id="edge60" class="edge">
<title>ai_worker.tts.normalizer&#45;&gt;ai_worker.tts.number_reader</title>
<path fill="none" stroke="black" d="M1717.53,-396.3C1717.53,-403.68 1717.53,-412.48 1717.53,-420.75"/>
<polygon fill="black" stroke="black" points="1717.53,-430.68 1713.03,-420.68 1717.53,-426.9 1717.53,-420.68 1717.53,-420.68 1717.53,-420.68 1717.53,-426.9 1722.03,-420.68 1717.53,-430.68"/>
</g>
<!-- ai_worker.video -->
<g id="node32" class="node">
<title>ai_worker.video</title>
<polygon fill="none" stroke="black" points="1849.21,-108 1741.85,-108 1741.85,-72 1849.21,-72 1849.21,-108"/>
<text text-anchor="middle" x="1795.53" y="-85.8" font-family="Times,serif" font-size="14.00">ai_worker.video</text>
</g>
<!-- ai_worker.video&#45;&gt;ai_worker.video.comfy_client -->
<g id="edge61" class="edge">
<title>ai_worker.video&#45;&gt;ai_worker.video.comfy_client</title>
<path fill="none" stroke="black" d="M1741.54,-102.25C1691.06,-112.76 1614.56,-128.7 1553.97,-141.33"/>
<polygon fill="black" stroke="black" points="1544.43,-143.31 1553.3,-136.87 1548.13,-142.54 1554.22,-141.27 1554.22,-141.27 1554.22,-141.27 1548.13,-142.54 1555.13,-145.68 1544.43,-143.31"/>
</g>
<!-- ai_worker.video&#45;&gt;ai_worker.video.image_filter -->
<g id="edge62" class="edge">
<title>ai_worker.video&#45;&gt;ai_worker.video.image_filter</title>
<path fill="none" stroke="black" d="M1804.51,-108.29C1812.97,-127.18 1822.55,-157.72 1809.53,-180 1802,-192.89 1790.05,-202.89 1777.17,-210.55"/>
<polygon fill="black" stroke="black" points="1768.74,-215.14 1775.37,-206.4 1772.06,-213.33 1777.52,-210.35 1777.52,-210.35 1777.52,-210.35 1772.06,-213.33 1779.68,-214.31 1768.74,-215.14"/>
</g>
<!-- ai_worker.video&#45;&gt;ai_worker.video.manager -->
<g id="edge63" class="edge">
<title>ai_worker.video&#45;&gt;ai_worker.video.manager</title>
<path fill="none" stroke="black" d="M1759.06,-108.48C1739.92,-117.66 1716.25,-129.01 1695.82,-138.8"/>
<polygon fill="black" stroke="black" points="1686.88,-143.09 1693.95,-134.71 1690.29,-141.46 1695.9,-138.77 1695.9,-138.77 1695.9,-138.77 1690.29,-141.46 1697.84,-142.83 1686.88,-143.09"/>
</g>
<!-- ai_worker.video&#45;&gt;ai_worker.video.prompt_engine -->
<g id="edge64" class="edge">
<title>ai_worker.video&#45;&gt;ai_worker.video.prompt_engine</title>
<path fill="none" stroke="black" d="M1793.41,-108.48C1789.94,-129.03 1781,-162.55 1758.53,-180 1716.7,-212.48 1580.29,-208.2 1511.58,-215.93"/>
<polygon fill="black" stroke="black" points="1501.97,-217.18 1511.31,-211.42 1505.72,-216.69 1511.89,-215.89 1511.89,-215.89 1511.89,-215.89 1505.72,-216.69 1512.47,-220.35 1501.97,-217.18"/>
</g>
<!-- ai_worker.video&#45;&gt;ai_worker.video.video_utils -->
<g id="edge65" class="edge">
<title>ai_worker.video&#45;&gt;ai_worker.video.video_utils</title>
<path fill="none" stroke="black" d="M1828.62,-108.35C1846.09,-118.03 1867.57,-130.78 1885.53,-144 1943.05,-186.34 1944.59,-213.16 2004.53,-252 2023.38,-264.21 2045.51,-274.84 2065.66,-283.3"/>
<polygon fill="black" stroke="black" points="2074.86,-287.07 2063.9,-287.44 2071.36,-285.63 2065.6,-283.28 2065.6,-283.28 2065.6,-283.28 2071.36,-285.63 2067.31,-279.11 2074.86,-287.07"/>
</g>
<!-- ai_worker.video.manager&#45;&gt;ai_worker.video.prompt_engine -->
<g id="edge66" class="edge">
<title>ai_worker.video.manager&#45;&gt;ai_worker.video.prompt_engine</title>
<path fill="none" stroke="black" d="M1587.84,-180.48C1553.37,-190.25 1510.26,-202.47 1474.29,-212.66"/>
<polygon fill="black" stroke="black" points="1465.03,-215.29 1473.43,-208.23 1468.67,-214.25 1474.65,-212.56 1474.65,-212.56 1474.65,-212.56 1468.67,-214.25 1475.88,-216.89 1465.03,-215.29"/>
</g>
<!-- ai_worker.video.prompt_engine&#45;&gt;ai_worker.script.client -->
<g id="edge67" class="edge">
<title>ai_worker.video.prompt_engine&#45;&gt;ai_worker.script.client</title>
<path fill="none" stroke="black" d="M1304.26,-250.49C1299.62,-251.04 1295.03,-251.55 1290.53,-252 930.49,-288.3 498.49,-300.15 320.9,-303.66"/>
<polygon fill="black" stroke="black" points="311.05,-303.85 320.96,-299.16 314.83,-303.78 321.05,-303.66 321.05,-303.66 321.05,-303.66 314.83,-303.78 321.13,-308.15 311.05,-303.85"/>
</g>
<!-- ai_worker.video.prompt_engine&#45;&gt;ai_worker.script.logger -->
<g id="edge68" class="edge">
<title>ai_worker.video.prompt_engine&#45;&gt;ai_worker.script.logger</title>
<path fill="none" stroke="black" d="M1304.5,-249.89C1299.77,-250.61 1295.1,-251.31 1290.53,-252 1015.05,-293.45 688.54,-341.98 537.26,-364.43"/>
<polygon fill="black" stroke="black" points="527.45,-365.89 536.68,-359.97 531.19,-365.34 537.34,-364.42 537.34,-364.42 537.34,-364.42 531.19,-365.34 538,-368.87 527.45,-365.89"/>
</g>
</g>
</svg>
